<?xml version="1.0" standalone="no"?>
<!DOCTYPE svg PUBLIC "-//W3C//DTD SVG 20010904//EN"
 "http://www.w3.org/TR/2001/REC-SVG-20010904/DTD/svg10.dtd">
<svg version="1.0" xmlns="http://www.w3.org/2000/svg"
 width="184.000000pt" height="184.000000pt" viewBox="0 0 184.000000 184.000000"
 preserveAspectRatio="xMidYMid meet">
<metadata>
Created by potrace 1.10, written by Peter Selinger 2001-2011
</metadata>
<g transform="translate(0.000000,184.000000) scale(0.100000,-0.100000)"
fill="#000000" stroke="none">
<path d="M754 1714 c-52 -18 -64 -38 -64 -105 0 -46 7 -71 35 -125 19 -37 35
-72 35 -79 0 -20 -33 -43 -73 -50 -31 -6 -43 -3 -73 20 -67 51 -128 53 -154 5
-8 -15 -7 -27 4 -49 20 -38 107 -115 156 -138 46 -21 46 -31 -5 -108 -28 -44
-45 -79 -45 -95 0 -3 -8 -30 -19 -60 -12 -35 -28 -60 -44 -69 -23 -14 -27 -13
-61 17 -48 42 -85 42 -120 1 -14 -17 -26 -39 -26 -49 0 -50 33 -252 50 -310
29 -98 99 -170 165 -170 32 0 65 31 65 60 -2 144 3 257 11 273 11 19 11 18 33
-2 16 -15 37 -22 74 -22 47 -1 50 -3 39 -20 -7 -11 -17 -19 -23 -19 -20 0 -92
-58 -99 -80 -5 -15 0 -29 17 -47 21 -23 28 -25 84 -20 l61 6 12 -131 c13 -142
28 -184 67 -194 27 -7 74 9 74 25 0 5 9 30 20 55 l19 46 53 -22 c74 -30 216
-32 247 -4 18 17 85 121 86 136 1 3 11 27 23 54 12 27 22 50 22 52 0 2 9 23
19 47 55 123 72 162 76 181 2 11 13 55 23 96 13 49 18 95 14 133 -4 55 -7 60
-56 103 -77 67 -132 84 -280 84 l-123 0 -31 35 c-18 19 -43 37 -57 41 -46 11
-26 29 69 61 52 18 104 40 115 50 32 27 27 66 -14 101 -41 37 -94 49 -143 34
-19 -6 -39 -9 -44 -6 -4 3 -8 27 -8 54 0 133 -107 238 -206 204z m117 -64 c44
-46 65 -124 55 -201 -8 -58 4 -65 64 -38 67 30 132 20 170 -26 21 -25 -1 -38
-149 -86 -114 -38 -135 -48 -142 -69 -10 -29 -17 -41 -48 -92 -12 -21 -21 -38
-19 -38 2 0 25 20 52 45 38 35 57 45 83 45 47 0 72 -16 88 -53 l13 -32 154 0
c151 0 154 0 201 -29 26 -15 62 -42 79 -59 30 -31 30 -33 25 -107 -6 -91 -43
-205 -134 -410 -90 -203 -105 -228 -148 -236 -68 -12 -194 20 -252 66 l-28 22
-12 -73 c-7 -40 -15 -79 -17 -86 -8 -20 -54 -16 -61 6 -11 35 -25 185 -25 269
0 45 -2 82 -5 82 -3 0 -28 -11 -55 -25 -54 -27 -89 -32 -108 -13 -20 20 -15
26 46 57 87 45 117 76 113 114 -1 18 -4 33 -5 35 -2 1 -22 -5 -46 -13 -100
-35 -169 2 -98 53 14 11 17 24 13 75 -2 34 -4 66 -4 71 -1 5 -9 2 -19 -7 -22
-20 -82 -23 -82 -4 1 17 25 47 39 47 6 0 11 5 11 10 0 6 -4 10 -10 10 -19 0
-10 26 33 95 23 39 52 89 65 113 l22 42 -38 0 c-26 0 -53 10 -83 29 -59 40
-133 117 -125 130 15 24 64 11 116 -30 l52 -41 66 24 c62 21 68 26 76 59 8 31
4 46 -27 107 -66 133 -58 202 25 202 35 0 47 -6 79 -40z m-442 -796 c12 -15
21 -36 21 -48 0 -31 11 -66 20 -66 5 0 16 23 25 50 14 41 21 50 40 50 13 0 26
-4 29 -8 2 -4 -2 -59 -10 -122 -13 -101 -15 -245 -3 -305 3 -17 -1 -19 -31
-17 -50 4 -81 30 -112 92 -41 82 -86 369 -61 393 16 17 62 6 82 -19z m211 -37
c0 -24 -25 -66 -33 -57 -3 3 -8 22 -12 43 -7 35 -6 37 19 37 20 0 26 -5 26
-23z"/>
<path d="M908 1141 c-26 -21 -55 -77 -45 -88 3 -3 23 1 44 10 40 15 54 49 36
82 -8 14 -12 14 -35 -4z"/>
<path d="M1064 1023 c-26 -3 -35 -12 -55 -54 -13 -28 -36 -62 -52 -75 -38 -32
-30 -38 24 -23 24 7 47 12 52 11 4 -1 7 1 7 6 0 4 13 7 28 7 27 0 102 -47 102
-64 0 -5 -35 -35 -77 -66 -43 -32 -82 -61 -86 -65 -5 -4 29 -7 74 -6 52 1 83
-3 86 -10 2 -7 -33 -23 -84 -39 -48 -15 -104 -34 -123 -41 l-35 -14 3 -105 c2
-61 7 -103 13 -100 12 8 132 -26 141 -39 16 -24 59 45 132 212 42 95 90 213
106 261 34 102 41 195 14 205 -17 6 -217 6 -270 -1z m244 -73 c2 -19 -10 -75
-27 -125 -28 -86 -163 -397 -183 -422 -10 -12 -18 -12 -86 6 l-42 12 0 67 c0
37 4 72 8 77 4 6 45 23 91 39 88 30 121 51 121 76 -1 20 -21 45 -44 53 -18 7
-17 10 12 40 36 37 40 71 14 103 -22 26 -74 54 -101 54 -31 0 -35 19 -9 40 20
17 36 19 133 17 l110 -2 3 -35z"/>
<path d="M868 983 c-22 -3 -30 -12 -38 -41 -5 -20 -10 -43 -10 -49 0 -21 16
-15 28 10 6 12 23 37 38 55 15 17 23 31 18 31 -5 -1 -21 -4 -36 -6z"/>
</g>
</svg>
