<svg version="1.1" id="Layer_1" xmlns="http://www.w3.org/2000/svg" xmlns:xlink="http://www.w3.org/1999/xlink" x="0px" y="0px"
	 width="100%" viewBox="0 0 184 184" enable-background="new 0 0 184 184" xml:space="preserve">
<path fill="#CC0101" opacity="1.000000" stroke="none" 
	d="
M118.000000,185.000000 
	C79.833336,185.000000 42.166523,184.956131 4.500292,185.084061 
	C1.516694,185.094193 0.911875,184.482468 0.917348,181.499847 
	C1.027758,121.333389 1.000000,61.166679 1.000000,1.000009 
	C60.999989,1.000000 121.000061,1.037213 180.999756,0.903088 
	C184.424576,0.895432 185.104874,1.575202 185.097000,5.000194 
	C184.961945,63.666546 184.961975,122.333374 185.097000,180.999725 
	C185.104874,184.424561 184.429428,185.135345 180.999054,185.101746 
	C160.167709,184.897690 139.333344,185.000000 118.000000,185.000000 
z"/>
<path fill="#FDF9F9" opacity="1.000000" stroke="none" 
	d="
M84.878830,71.303902 
	C86.318642,70.252312 87.456497,69.292320 88.632820,68.382050 
	C94.425537,63.899433 100.981964,65.130455 103.678963,71.856796 
	C104.960426,75.052780 106.638153,75.394920 109.262253,75.042740 
	C116.876411,74.020821 124.458282,73.949333 132.111130,74.923584 
	C139.149261,75.819580 144.360382,79.589874 149.048569,84.446693 
	C151.076920,86.548004 151.169769,89.216591 151.053146,91.932190 
	C150.602295,102.429886 146.977173,112.084930 142.961349,121.584175 
	C138.885178,131.226151 134.599564,140.785172 130.169464,150.270218 
	C126.484856,158.159103 122.848854,159.858246 114.272232,158.413483 
	C108.309799,157.409103 102.625984,155.467682 97.589432,152.194977 
	C94.011108,149.869827 93.566643,151.383911 93.320114,154.548325 
	C93.101166,157.358704 92.628807,160.158600 92.109085,162.933289 
	C91.708649,165.071167 91.261536,167.123428 88.143463,166.920975 
	C85.129128,166.725266 85.357269,164.513031 85.053986,162.686111 
	C83.303558,152.141724 82.678383,141.509598 82.896553,130.555374 
	C79.704231,130.750824 77.402901,132.713730 74.784630,133.834229 
	C73.126442,134.543854 71.542427,135.356522 69.596733,135.159760 
	C67.595337,134.957382 65.782631,134.161819 65.302139,132.355515 
	C64.833351,130.593155 66.959953,130.092010 68.155479,129.377518 
	C71.568268,127.337929 75.355492,125.926239 78.420662,123.303604 
	C79.430786,122.439339 80.414047,121.521492 81.281784,120.517662 
	C83.039101,118.484764 82.694740,115.755913 81.833267,113.912926 
	C80.764137,111.625725 78.716484,113.957169 77.271996,114.431602 
	C74.247177,115.425087 71.254425,116.333481 68.067513,115.894974 
	C65.225266,115.503876 63.740856,113.910286 65.149620,111.034050 
	C68.667000,103.852676 68.726128,103.881638 67.856293,95.407791 
	C65.351250,95.840965 62.978580,96.989037 60.345848,96.747971 
	C57.869892,96.521263 57.164177,95.513100 58.751724,93.690140 
	C62.478271,89.411003 61.494827,83.256302 65.213295,78.833656 
	C68.699310,74.687485 71.356636,69.816521 73.537079,64.198006 
	C62.783104,65.090752 57.118229,57.509460 50.692219,51.206673 
	C49.825363,50.356445 49.158092,49.479584 49.728466,48.135498 
	C50.318916,46.744076 51.493126,46.890152 52.654694,46.809040 
	C57.448128,46.474316 60.078815,50.225101 63.168728,52.742020 
	C65.437645,54.590191 67.275879,55.223068 69.744522,53.844910 
	C73.618340,51.682293 79.626938,52.691681 80.658058,46.260696 
	C81.045959,43.841427 81.055710,41.806545 79.524147,39.689827 
	C76.264801,35.185192 74.130638,30.141211 73.351891,24.594257 
	C72.349983,17.457737 76.457222,14.141987 83.282448,16.694660 
	C89.217178,18.914286 91.908562,23.770203 92.920197,29.652304 
	C93.569801,33.429371 93.727936,37.306740 93.138016,41.105762 
	C92.482094,45.329880 94.599426,45.662083 97.726646,44.677582 
	C99.456009,44.133148 101.080948,43.264565 102.773087,42.592815 
	C107.454865,40.734245 113.632950,42.498756 116.696114,46.397491 
	C118.779015,49.048584 116.707108,49.987667 114.885796,50.644768 
	C108.847908,52.823143 102.813545,55.080540 96.629814,56.763866 
	C91.555038,58.145313 87.441284,60.022190 86.195427,65.739685 
	C85.857124,67.292221 84.695801,68.665413 83.828888,70.468765 
	C83.854721,71.262505 84.147362,71.449524 84.878830,71.303902 
z"/>
<path fill="#FDF9F8" opacity="1.000000" stroke="none" 
	d="
M46.122311,106.672699 
	C46.571186,108.309074 46.969597,109.550888 47.474873,111.125793 
	C50.168713,109.520851 50.027676,106.719360 50.799576,104.592384 
	C51.746197,101.983963 53.301300,101.243454 55.715679,101.666573 
	C58.847672,102.215462 57.219044,104.552948 57.082233,106.054985 
	C56.238045,115.323349 54.552113,124.510841 54.710701,133.876923 
	C54.761566,136.880859 54.501400,139.878525 55.829277,142.685150 
	C57.157948,145.493454 55.862164,146.125778 53.264076,146.213425 
	C47.828987,146.396698 44.236370,143.421494 42.305702,138.965775 
	C37.077816,126.900490 35.334797,114.051620 34.881554,101.003166 
	C34.827137,99.436562 35.180328,97.789497 37.124554,97.704369 
	C39.190422,97.613907 41.435715,96.925941 43.144112,99.024109 
	C44.889816,101.168091 46.015705,103.488113 46.122311,106.672699 
z"/>
<path fill="#D72617" opacity="1.000000" stroke="none" 
	d="
M84.806717,71.103653 
	C84.889160,71.581787 84.691330,72.079613 84.325012,72.343910 
	C83.632629,72.843468 83.138191,74.440636 82.201958,73.590523 
	C81.385895,72.849518 82.784439,71.993835 83.453781,70.993919 
	C83.980499,70.883720 84.215439,70.950829 84.806717,71.103653 
z"/>
<path fill="#CD0607" opacity="1.000000" stroke="none" 
	d="
M117.521332,116.653320 
	C112.388527,113.252647 107.001122,115.525269 100.225708,116.081291 
	C105.832405,111.809204 110.311531,108.122093 115.083405,104.863701 
	C117.921700,102.925629 118.207932,101.673012 115.527122,99.320816 
	C111.993523,96.220345 108.436348,94.760826 103.752213,96.513290 
	C101.040390,97.527855 98.090729,97.906708 94.891220,98.205818 
	C98.669373,94.094933 101.328537,89.485130 103.663696,84.562943 
	C104.845909,82.071030 108.474838,82.562370 110.924133,82.425766 
	C117.889496,82.037292 124.889404,82.217606 131.875046,82.267082 
	C134.855881,82.288185 136.160278,83.699242 136.162354,86.934952 
	C136.169525,98.129250 131.403366,107.918694 127.313568,117.877251 
	C123.719879,126.627785 119.677399,135.194443 115.810600,143.832230 
	C113.089470,149.910797 111.374153,150.814575 105.295586,148.667374 
	C101.503227,147.327774 95.272888,148.160461 94.254814,144.913071 
	C92.537460,139.435135 93.530502,133.093155 93.486893,127.113815 
	C93.474419,125.404556 95.070656,125.225075 96.295601,124.815247 
	C101.112595,123.203629 105.935211,121.608803 110.753334,120.000549 
	C113.068802,119.227661 115.511353,118.734627 117.521332,116.653320 
z"/>
<path fill="#CE1016" opacity="1.000000" stroke="none" 
	d="
M95.435234,76.391357 
	C94.931297,77.224159 94.555420,77.935486 94.041595,78.055321 
	C91.727989,78.594864 89.709236,80.454758 87.157509,79.684654 
	C86.958519,79.624596 86.936714,78.118225 87.223755,77.452797 
	C88.607147,74.245705 90.254395,71.178772 93.609444,69.579033 
	C95.143089,68.847771 95.089600,70.418625 95.458199,71.137794 
	C96.266083,72.714035 95.604095,74.372520 95.435234,76.391357 
z"/>
<path fill="#D22323" opacity="1.000000" stroke="none" 
	d="
M85.113823,88.136803 
	C86.259811,87.872711 87.123062,87.884132 87.845596,87.570946 
	C88.587502,87.249352 89.292931,86.486160 89.944870,87.435410 
	C90.465088,88.192879 90.057983,89.022934 89.497681,89.703476 
	C87.612839,91.992783 85.728935,94.282845 83.467888,97.030495 
	C82.544991,93.520294 83.393303,90.860344 85.113823,88.136803 
z"/>
</svg>